<?xml version="1.0" encoding="UTF-8"?>
<svg viewBox="0 0 565 339" xmlns="http://www.w3.org/2000/svg">
 <path d="m-30.389-4.2108h600v358.29h-600z"/>
 <g transform="matrix(1.0541 0 0 1.0541 117.87 -409.84)">
  <path d="m97.356 692.96c0.7716-6.1521 3.3084-14.227 6.7731-21.56 3.2586-6.8968 3.6528-12.048 1.4088-18.409-2.0833-5.9047-1.7341-11.825 0.74384-12.612 1.333-0.4231 1.767-1.2282 1.406-2.6083-0.28714-1.098 0.60442-5.3503 1.9812-9.4496 3.0165-8.9813 2.8202-13.602-0.79325-18.669-1.4934-2.0943-3.0124-5.2443-3.3755-7-0.61724-2.9843-4.7112-12.005-8.0296-17.692-0.96966-1.6619-1.4121-5.0143-1.3198-10 0.14385-7.7653-1.6378-16.953-3.536-18.235-2.7564-1.8614-3.4403-0.73541-2.8757 4.7347 0.39032 3.782 0.21156 5.5-0.57227 5.5-0.62694 0-1.1399-0.75-1.1399-1.6666 0-2.3872-1.4721-0.5943-1.6419 1.9996-0.07803 1.1918-1.334 6.442-2.7911 11.667-3.8842 13.929-6.4279 26.021-6.646 31.594-0.20547 5.2496 0.96256 16.282 1.8912 17.863 0.30938 0.52673 0.66716 1.9393 0.79509 3.1391s1.3936 4.7196 2.8126 7.822 2.5801 6.2324 2.5801 6.9559 0.89999 2.1298 2 3.1253 2 2.5851 2 3.5325 0.62637 2.2424 1.3919 2.8778c1.806 1.4988 2.6895 4.9213 1.4656 5.6777-0.54961 0.33966-0.5874 1.0826-0.08902 1.751 0.47612 0.63855 0.97979 7.6379 1.1193 15.554 0.19466 11.047 0.61731 14.948 1.8183 16.781 0.86062 1.3135 1.6759 2.2616 1.8116 2.1069s0.50087-2.3062 0.81129-4.7812zm-3.5764-52c-1.8343-5.9971-4.7857-19.952-4.653-22 0.08901-1.375-0.30817-4.4525-0.88261-6.839s-0.88166-8.5858-0.68267-13.776c0.28863-7.5289 0.76286-9.9471 2.3453-11.959l1.9835-2.5216 0.70657 4.7118c0.40892 2.7269 0.28611 5.3851-0.29157 6.3101-0.60054 0.96161-0.65478 2.5265-0.13619 3.9284 0.47406 1.2815 0.58353 2.7806 0.24321 3.3312s-0.08332 3.7716 0.57108 7.1576c2.3308 12.06 1.9708 11.158 3.7449 9.384 0.87155-0.87152 1.7787-3.5251 2.0158-5.8968 0.44583-4.4582 0.88541-5.5616 1.8367-4.6104 1.6346 1.6346-0.16553 18.117-2.7063 24.78-1.1536 3.025-2.4436 6.4-2.8666 7.5-0.59777 1.5544-0.87138 1.6658-1.228 0.5zm-17.716 18.75c0.54323-1.2375 1.793-3.6 2.7772-5.25 2.1539-3.6108 2.0925-8.9826-0.18859-16.5-3.9875-13.141-5.8957-32.561-3.7537-38.203 2.0701-5.4524 3.3885-10.337 3.5862-13.287 0.11673-1.7422 0.50219-3.6369 0.85654-4.2103 1.2432-2.0115 2.5089-17.633 1.6185-19.975-0.66185-1.7408-1.6601-2.3247-3.9744-2.3247-1.6998 0-3.9136-0.44055-4.9197-0.979-2.3042-1.2331-4.4736 1.0352-3.6056 3.77 0.32941 1.0378-0.09774 3.5542-0.94918 5.592s-1.2993 4.1076-0.99524 4.5996-0.05486 1.2596-0.7976 1.7059c-1.8669 1.1218-4.4818 9.6871-5.8027 19.007-2.1491 15.164 0.95127 32.461 7.7128 43.031 1.8644 2.9145 3.3122 5.6308 3.2173 6.0362s0.35371 2.5728 0.99673 4.8162 1.2704 6.4059 1.3941 9.25c0.2407 5.5324 1.2316 6.5561 2.8272 2.9211zm-11.371-57.417c-1.2344-1.2344-0.64951-8.7799 1.266-16.333 2.549-10.051 3.8535-13.238 5.2313-12.779 1.141 0.38031 2.0054 9.7786 0.89935 9.7786-0.83852 0-3.4132 6.0861-3.8073 9-0.18597 1.375-0.59193 4.4125-0.90213 6.75-0.54102 4.077-1.2492 5.0214-2.6872 3.5834zm28.585-112.15c3.4364-3.3807 8.9479-8.0996 12.248-10.486 6.1565-4.4529 29.807-17.702 31.599-17.702 2.641 0 6.9207-3.3545 9.2067-7.2163 5.1019-8.619 13.541-17.538 24.194-25.57 3.3-2.488 6.45-5.0443 7-5.6808s1.9-1.499 3-1.9166c1.8915-0.71826 1.9041-0.83005 0.23264-2.061-0.98006-0.72171-1.5092-1.9743-1.1878-2.8119 0.43289-1.1281-0.38538-1.6768-3.2326-2.1677-5.5896-0.96374-26.901-3.2286-32.052-2.699-11.783 1.2112-14.002 1.8211-18.809 3.5328-3.31 1.1789-9.8242 2.9977-13.791 5.5476-4.4689 2.8729-8.6608 5.39-8.6608 5.8144s-2.3216 1.4943-4.7966 4.1901c-2.475 2.6958-7.1851 7.0257-10.002 11.31-2.6571 4.0402-4.1449 6.9206-7.4357 13.425-2.3052 4.5561-3.7638 10.645-4.1898 13.127-1.3542 7.888-2.3723 20.364-0.65869 28.051 0.04583 0.20563 2.5593 0.16852 5.5854-0.08243 5.1624-0.4281 5.8879-0.83585 11.75-6.6031zm71.146-39.642c17.489-5.9798 33.747-7.9116 43.041-5.1143l4.7574 1.4318-0.69026-3.6795c-0.37965-2.0237-1.1289-3.9506-1.665-4.2819s-1.0986-1.4468-1.2501-2.4789-1.134-2.112-2.1835-2.3999-3.1614-1.6308-4.6932-2.9842c-7.1263-6.2967-13.923-5.1244-28.358 4.891-10.123 7.0232-22.176 18.07-19.717 18.07 0.36118 0 5.2025-1.5543 10.758-3.454z" fill="#e40000"/>
  <path d="m90.027 580.96c0-1.2814 0.70806-1.2814 1.5 0 0.33992 0.54999 0.14148 1-0.44098 1s-1.059-0.45001-1.059-1zm-111.02 83.01c1.8106-0.96899 3.5656-5.4689 6.0489-15.51 0.68013-2.75 2.2581-6.8063 3.5066-9.014 5.4221-9.5879 25.935-24.814 54.439-40.409 13.736-7.5153 15.712-9.2268 16.521-14.308 0.37379-2.3477 1.3564-6.6644 2.1835-9.5927s1.3348-5.4933 1.1281-5.7-3.2858 1.6642-6.8425 4.1575-11.867 7.184-18.467 10.424c-21.376 10.493-43.415 16.469-66 17.896-9.2574 0.58514-13.086 1.2737-16.75 3.0127-2.6125 1.2399-4.75 2.6185-4.75 3.0638s2.308 1.576 5.1288 2.513c4.0497 1.3451 7.3635 1.5941 15.75 1.1832 16.336-0.80017 31.96-5.561 44.567-13.58 5.8213-3.7028 9.3903-4.2581 4.4521-0.69263-14.388 10.388-29.548 15.551-50.148 17.078l-8.75 0.64856v4.009c0 3.2162 0.62942 4.597 3.1829 6.9822l3.1829 2.9733 8.0454-2.659c9.4389-3.1196 10.422-3.6077 16.291-8.0873 2.4482-1.8688 5.2044-3.3961 6.1247-3.394 1.0567 0.00232 0.51592 0.70947-1.4675 1.9189-1.7275 1.0534-3.4528 2.4199-3.8341 3.0367s-2.4728 2.2451-4.648 3.6181c-4.268 2.6943-5.3374 4.6786-7.5035 13.922-2.663 11.365-2.5571 11.23-12.96 16.48-2.7026 1.3641-5.0951 2.5953-5.3166 2.736-0.5784 0.36762 4.6222 4.477 8.2688 6.5339 3.516 1.9832 5.9317 2.1961 8.616 0.75952zm92.033-96.26c0.01239-1.8194 0.20082-1.963 0.98469-0.75 1.2529 1.9388 1.2529 3 0 3-0.55001 0-0.99311-1.0125-0.98469-2.25zm-113.59 90.679c0.8643-0.86426 1.5714-1.8989 1.5714-2.2991s1.5105-1.2739 3.3567-1.9415 4.1956-2.1408 5.2209-3.2737c1.827-2.0189 1.8076-2.1644-0.97482-7.3082-2.3778-4.3957-2.7246-5.9255-2.1346-9.4178 0.63837-3.7785 0.41495-4.459-2.3819-7.2559-1.8942-1.8942-3.0916-4.1188-3.1-5.7594-0.02336-4.5736-1.063-6.887-3.6182-8.0512-4.2766-1.9486-6.1248-1.3893-7.3138 2.2132-0.60537 1.8343-2.4403 4.6185-4.0776 6.1871-3.513 3.3657-3.6391 4.3663-0.97689 7.7507 1.1 1.3984 2 3.6463 2 4.9953s1.1571 4.1578 2.5714 6.2418c1.7668 2.6035 2.5053 4.9157 2.3602 7.3896-0.35398 6.0364-0.01417 7.6346 2.1074 9.9119 2.4252 2.6031 3.3031 2.7036 5.3896 0.61713zm366.61-11.023c1.3453-3.5383-2.0457-9.4848-7.447-13.059-2.2345-1.4787-3.5126-2.872-2.8403-3.096 3.6505-1.2169 13.252 9.9405 13.252 15.399 0 1.8425 0.4133 3.35 0.91843 3.35 1.2174 0 5.0816-6.3115 5.0816-8.2999 0-0.86011 1.2988-2.4887 2.8863-3.6191s3.6064-3.8549 4.4865-6.0546 2.4723-4.8715 3.538-5.9372c4.163-4.1631 5.333-10.265 2.9648-15.463-0.93677-2.056-0.76987-2.9659 1-5.4514 2.8158-3.9545 2.684-5.517-0.79352-9.409-2.6135-2.925-3.482-3.2658-8.323-3.2658-4.1776 0-6.3176 0.60388-9.4234 2.6592-7.9192 5.2407-16.235 6.0847-28.397 2.8823-9.3702-2.4671-31.581-11.317-43.682-17.405-5.0842-2.5577-15.884-7.308-24-10.556s-18.257-7.3561-22.537-9.1288-8.0518-2.9522-8.383-2.621c-0.68376 0.68378-0.85438 4.6513-0.54747 12.731l0.21124 5.5609 5.25 1.3088c14.025 3.4966 42.203 16.606 57.25 26.636 8.7399 5.8254 21.872 17.832 25.678 23.477 2.0232 3.0007 7.1983 9.1684 11.5 13.706l7.8217 8.25h6.7745c6.3716 0 6.8332-0.1543 7.7608-2.5942zm3.9642-13.052c-1.925-0.86249-4.625-1.9701-6-2.4613-1.8652-0.66632-1.2836-0.76947 2.2903-0.40625 5.1258 0.52094 8.7097 1.9814 8.7097 3.5493 0 1.2913-0.85754 1.1744-5-0.6817zm-6.3807-6.3879c-3.8751-1.1603-7.2205-4.4622-10.354-10.22-3.2623-5.9938-8.6794-9.656-20.581-13.913-7.4569-2.6674-8.6646-3.3709-6.6482-3.8727 2.6274-0.65393 8.5807 1.105 21.224 6.2709l7.7598 3.1706 6.5068-2.1155c6.3503-2.0646 10.667-1.9206 14.022 0.46771 1.6957 1.2069 3.5612 8.934 2.887 11.958-1.305 5.8535-1.7213 6.5096-5 7.8796-3.7556 1.5692-5.5918 1.6392-9.8165 0.37427zm11.437-3.533c0.71545-0.86206 1.3331-3.7502 1.3724-6.418 0.13599-9.2091-6.6082-12.526-16.113-7.9254-2.3737 1.149-4.3157 2.7753-4.3157 3.6138 0 2.9291 4.3383 9.2112 7.4066 10.725 4.055 2.0007 9.9907 2.003 11.649 0.00446zm4.8025-20.394c2.5269-2.3506 3.2421-3.7326 2.8887-5.5815-0.35922-1.8791-0.04303-2.4573 1.3438-2.4573 1.4688 0 1.7533 0.67127 1.4967 3.5314-0.37827 4.2153-0.19153 3.9966-5.1389 6.0182l-3.9486 1.6135 3.3584-3.1242zm-7.8584-2.0389c-1.1864-0.76666-0.97153-0.97259 1.0275-0.98468 1.3901-0.00842 3.5276-0.71582 4.75-1.572 1.8255-1.2786 2.2225-1.3072 2.2225-0.16052 0 0.76794-1.1462 1.9185-2.5471 2.5567-3.062 1.3951-3.5216 1.4087-5.4529 0.16052zm-354.81 42.99c0.40289-1.3696 1.8051-6.0201 3.116-10.334l2.3835-7.8441-2.9222 0.58441c-3.8276 0.7655-10.509 5.5801-11.165 8.0451-0.28403 1.0678 0.32433 3.5427 1.3519 5.5s2.1316 4.3794 2.4534 5.3825c0.81809 2.5504 3.892 1.6932 4.7823-1.3336zm171.35-10.573c3.1515-1.3168 4.5013-1.3838 8.021-0.39831 2.3276 0.65167 5.5783 0.8891 7.2239 0.52771 4.2608-0.93585 15.082-11.078 17.618-16.512 1.1636-2.4936 3.5728-6.64 5.3538-9.214s3.2383-4.9864 3.2383-5.3609c0-2.3908 7.7501-19.458 9.8821-21.762 2.4195-2.6149 2.6006-3.4866 2.7011-13 0.05924-5.6084 0.27832-10.647 0.48686-11.197 0.45468-1.1992-2.0401-10.634-3.139-11.872-0.42577-0.47937-1.8989 1.3206-3.2736 4s-3.66 6.4214-5.0784 8.3158-2.5987 4.3694-2.6229 5.5c-0.08301 3.8873-2.886 10.029-5.4192 11.875-1.3953 1.0164-2.5369 2.4855-2.5369 3.2646s-0.73789 1.4166-1.6398 1.4166-2.2376 0.78754-2.9682 1.75c-1.6026 2.1112-1.8017 5.25-0.33302 5.25 0.58246 0 0.75121 0.49805 0.375 1.1068-0.48679 0.78766-0.90408 0.75073-1.4472-0.12811-0.92866-1.5026-2.9868-0.41357-2.9868 1.5804 0 0.79254-0.45 1.441-1 1.441s-1 0.62622-1 1.3916-1.1506 1.6804-2.5568 2.0333c-2.0872 0.52387-2.4318 1.0488-1.8758 2.8584 0.96401 3.1377 1.1997 3.2374 3.2552 1.3773 1.0092-0.91333 2.4266-1.6606 3.1499-1.6606s-0.87247 1.6704-3.5461 3.7118l-4.8612 3.7118-12.033 0.401-12.033 0.40094v-3.8628c0-2.5569-0.42259-3.7783-1.25-3.6128-0.6875 0.13751-1.25-0.20001-1.25-0.75s-0.675-1-1.5-1-1.5 0.67499-1.5 1.5-0.70714 1.5-1.5714 1.5c-1.4286 0-1.4286-0.14282 0-1.5714 1.8151-1.8151 1.9924-3.0504 0.56436-3.9329-0.55388-0.34235-1.277 0.08112-1.607 0.94098-0.67113 1.7489-3.386 2.1533-3.386 0.50433 0-0.58246 0.38219-0.82275 0.84932-0.53406 1.5044 0.92975 5.033-4.0003 3.9602-5.533-0.74454-1.0637-1.0763-1.0916-1.469-0.12396-0.27898 0.6875-1.1447 1.25-1.9239 1.25s-1.4167 0.50513-1.4167 1.1224c0 0.77551-0.46364 0.73767-1.5-0.12244-0.825-0.68469-1.4931-1.9773-1.4847-2.8724 0.01334-1.4175 0.14242-1.4339 1-0.12756 0.87528 1.3334 1.0941 1.3334 1.9694 0 1.472-2.2424 1.2215-3.19-0.73469-2.7785-2.315 0.487-5.25-2.8903-5.25-6.0411 0-1.3825-0.24332-2.2703-0.54071-1.973-0.67342 0.6734-6.4593-4.3154-6.4593-5.5695 0-0.50421-1.4092-3.207-3.1316-6.0062s-3.6349-6.4744-4.25-8.167c-1.2012-3.3052-8.896-10.854-9.9697-9.78-1.1334 1.1334-0.70009 9.6978 0.7777 15.371 0.88486 3.3972 1.2192 7.7606 0.88078 11.493-0.51533 5.6832-0.28951 6.5142 4.0718 14.984 2.5396 4.9319 4.6281 9.642 4.6412 10.467 0.06196 3.9138 3.9969 10.041 7.531 11.726 2.6836 1.2797 4.4058 3.2122 6.4693 7.2591 3.02 5.9228 10.904 14.292 14.98 15.901 3.6889 1.4567 7.2854 1.3105 11.545-0.46924zm-12.402-31.307c-0.83426-0.52856-0.97089-1.0981-0.35478-1.4789 0.55109-0.34058 1.26 0.05316 1.5754 0.875 0.66263 1.7268 0.60022 1.7577-1.2206 0.60394zm35.936-9.5263c-0.04341-1.0542 0.19293-1.6448 0.52522-1.3125s0.36781 1.1948 0.07893 1.9166c-0.31921 0.79773-0.55618 0.56079-0.60416-0.60413zm-27.079 6.4012c0-1.8032-2.3167-3.3345-3.4022-2.249-0.80437 0.80432-0.76166 4.7672 0.06023 5.589 1.0016 1.0016 3.342-1.3375 3.342-3.3401zm5 0.51544c0-2.4763-0.44791-3.5-1.5314-3.5-2.1064 0-2.8492 2.4204-1.5104 4.9219 1.6786 3.1365 3.0418 2.4993 3.0418-1.4219zm4.8164 0.17291c0.22424-1.8943-0.13988-2.6729-1.25-2.6729-1.0832 0-1.5664 0.95117-1.5664 3.0834 0 3.8259 2.3556 3.4827 2.8164-0.41046zm5.1836-0.75623c0-3.826-2.3556-3.4827-2.8164 0.41046-0.22424 1.8942 0.13988 2.6728 1.25 2.6728 1.0832 0 1.5664-0.95111 1.5664-3.0833zm5 0.14233c0-3.2455-1.599-4.86-3.2139-3.2451-1.4262 1.4262-0.09273 6.186 1.733 6.186 0.97224 0 1.481-1.0102 1.481-2.941zm9.2035-17.065c0.93692-1.6465 1.3047-2.9937 0.81738-2.9937s-1.1717 0.90002-1.5209 2-1.0544 2-1.5674 2-0.93262 0.45001-0.93262 1c0 1.9143 1.5111 0.9679 3.2035-2.0063zm-42.703 1.0063c-0.33992-0.54999-1.293-1-2.118-1s-1.2219 0.45001-0.88197 1 1.293 1 2.118 1 1.2219-0.45001 0.88197-1zm-1.0785-4.127c-0.37483-0.60651-1.1119-0.54486-1.9667 0.16455-0.75194 0.62408-1.8058 0.86359-2.3419 0.53229-1.1832-0.73126-2.4558 1.0664-1.663 2.3491 0.32202 0.521 1.8676 0.27057 3.5695-0.57849 1.6509-0.82361 2.7318-1.934 2.4021-2.4675zm12.066-1.8525c0.38098-0.61645 1.3522-0.52374 2.6199 0.25 1.7012 1.0383 2.2384 0.92755 3.4536-0.71161 1.7713-2.3892 1.8677-6.7089 0.1891-8.4712-1.0194-1.0702-0.8418-1.1892 0.96223-0.64465 1.2167 0.36731 3.0565 0.216 4.0883-0.33624 2.8106-1.5042 6.205-0.2608 6.169 2.2599-0.0275 1.9296-0.12776 1.9662-1.0497 0.38336-1.1701-2.0088-4.9516-2.3184-6.7199-0.54999-1.7758 1.7758-1.5106 7.4669 0.38179 8.193 3.0851 1.1839 5.6043 0.61121 6.1285-1.393 0.6189-2.3666 2.2898-2.683 2.2898-0.43359 0 1.1189 0.78574 1.4761 2.75 1.25 2.3736-0.27307 2.7223-0.72699 2.5474-3.3164-0.18254-2.7031-0.13034-2.76 0.52757-0.5741 0.99377 3.3016 2.9779 3.7396 4.1129 0.90784 0.76146-1.8998 0.94714-1.9877 0.99875-0.47241 0.05461 1.6033 0.58272 1.7639 3.8111 1.1582 2.0612-0.38672 4.0359-1.1694 4.3882-1.7394s1.1408-0.72711 1.7523-0.34918c0.63414 0.39191 1.1118 0.01733 1.1118-0.87189 0-0.85742 0.5625-1.4465 1.25-1.309 1.6456 0.32916 1.6456-4.4514 0-5-0.75951-0.25317-1.256 0.4989-1.2653 1.9167-0.00891 1.3579-0.32243 1.8602-0.75 1.2015-0.40408-0.62244-1.8597-1.07-3.2347-0.99438-2.0331 0.11169-2.455 0.60321-2.2591 2.6318 0.23763 2.4606 0.22792 2.4639-0.71777 0.24438-1.1029-2.5884-4.0231-3.044-4.0231-0.62756 0 1.2585-0.30661 1.368-1.3667 0.48822-0.75169-0.6239-2.2142-1.0577-3.25-0.96405-3.5857 0.32422-5.05-0.15326-5.05-1.6466 0-0.91534 0.93249-1.5 2.3924-1.5 1.3403 0 2.1206 0.43976 1.7743 1-0.33992 0.54999 0.11008 1 1 1s1.3288-0.46802 0.97523-1.04c-0.40921-0.66211 0.20955-0.82617 1.7026-0.45142 1.29 0.32373 4.0277-0.11426 6.0838-0.97339 2.8599-1.195 3.7459-1.2651 3.7702-0.29858 0.02141 0.8504 0.43008 0.74432 1.25-0.32434 0.67001-0.87323 1.7552-1.4068 2.4114-1.1856 0.81699 0.27533 1.185-1.1159 1.167-4.4122-0.01442-2.648 0.42676-5.9908 0.98041-7.4287 1.2246-3.1805 7.4752-8.4972 11.042-9.3925 3.6306-0.91126 5.1171-2.3618 5.1171-4.9933 0-2.2424-2.2056-4.9611-3.21-3.9567-0.28928 0.28925-0.31799-0.56195-0.06383-1.8915 0.57059-2.9848-1.2361-4.2706-3.52-2.5052-1.5352 1.1867-1.5308 1.1123 0.04379-0.74262 0.96249-1.1338 1.75-3.1246 1.75-4.4239 0-2.2287 0.07643-2.2579 1.3505-0.51556 0.89009 1.2173 2.0837 1.6552 3.5014 1.2844 1.183-0.30939 1.8987-0.15448 1.5905 0.34424s-1.6854 0.90674-3.0604 0.90674c-1.5555 0-2.2445 0.41339-1.8238 1.0942 0.37193 0.60181 1.834 0.87286 3.2491 0.60236l2.5728-0.49182-2.3533 1.7751-2.3533 1.7751 2.0908 1.119c1.15 0.61542 2.9109 0.81927 3.9133 0.45294 1.761-0.64355 1.7613-0.59625 0.00729 1.4044-1.3602 1.5514-1.5087 2.2596-0.59253 2.8259 1.7045 1.0535 9.3959-7.9055 10.794-12.573 1.5011-5.0101 1.4076-6.6767-0.56142-10.01-1.442-2.441-1.5122-3.574-0.50508-8.1543 1.9517-8.8766 2.4758-21.821 1.2681-31.319-0.62936-4.95-1.54-12.053-2.0236-15.784-0.95877-7.3972-2.9542-11.353-6.367-12.623-7.5054-2.792-50.58 7.2969-57.769 13.531-0.86408 0.7493-3.7364 4.7805-6.3829 8.9582-5.4358 8.5809-6.3672 13.118-4.2807 20.851 1.4306 5.3019 3.6462 7.2484 3.8708 3.4006l0.13617-2.3333 0.43338 2.25c0.23836 1.2375 0.75392 2.25 1.1457 2.25s0.78224 1.2375 0.86768 2.75c0.151 2.6734 0.12497 2.6874-0.93471 0.5-1.7842-3.6829-3.7844-2.7778-3.7844 1.7125 0 7.8955-6.2663 20.894-12.212 25.332-5.7067 4.2599-7.9118 4.9558-15.426 4.8683-5.2096-0.06067-7.5292 0.30774-8.0839 1.284-0.65643 1.1553-1.2461 1.1483-3.7778-0.04474-2.9304-1.3809-2.9376-1.4019-0.31129-0.90442 4.4227 0.83783 4.2571-1.314-0.49176-6.3909-5.0651-5.415-6.823-8.5283-8.6712-15.357-0.70708-2.6125-1.8427-4.75-2.5235-4.75-1.5101 0-8.5022 17.887-8.5022 21.751 0 3.2305 5.3788 11.802 9 14.342 3.4173 2.397 9.1525 3.5358 8.7786 1.743-0.15322-0.73468-1.1786-1.6284-2.2786-1.9861-1.8647-0.60632-1.8478-0.65704 0.25-0.75 1.7068-0.07556 2.25-0.70325 2.25-2.5997 0-1.375 0.525-2.5 1.1667-2.5s0.87057 0.29614 0.50867 0.65802-0.09939 1.3483 0.58334 2.192c0.83407 1.0307 0.85924 1.3049 0.07673 0.83575-1.4853-0.8905-2.0592 0.83606-1.5136 4.5536 0.43737 2.98 0.65868 3.1515 5.4098 4.1916 1.5024 0.32886 4.3149 1.988 6.25 3.6871 3.3294 2.9232 3.5183 3.4295 3.5183 9.4266 0 3.4855 0.45734 6.62 1.0163 6.9654s0.74412 1.0685 0.41144 1.6069 0.55998 2.1436 1.9837 3.5673 2.5886 2.2471 2.5886 1.8297 0.69407-0.18274 1.5424 0.52124c1.9108 1.5859 2.9994 0.50159 3.8004-3.7852 0.63899-3.4199-0.09528-4.0832-2.2142-2-1.0196 1.0024-1.2078 0.95288-0.95-0.25 0.22784-1.0632-0.40646-1.4309-2.1786-1.2627-2.1627 0.2052-2.2617 0.09613-0.73368-0.80884 1.7676-1.0469 10.377-0.31482 11.158 0.94873 0.21973 0.35553 3.3401 0.62396 6.9342 0.59656 4.4054-0.03357 6.2551 0.28845 5.6767 0.98822-0.47191 0.57092-1.0554 2.3881-1.2967 4.038l-0.43866 3-0.14984-3.2814c-0.15973-3.4982-2.4843-5.2841-4.3932-3.3752-0.80629 0.80627-1.4703 0.80908-2.4328 0.01032-0.96979-0.80487-1.7249-0.76575-2.8238 0.14624-1.2285 1.0196-1.5 0.95123-1.5-0.37756 0-1.92-1.1317-2.0907-2.8-0.42242-1.4672 1.4672-1.5987 6.8-0.16778 6.8 0.56773 0 1.4392-1.0125 1.9366-2.25 0.88194-2.1942 0.90596-2.1844 0.96777 0.393 0.05246 2.1876 1.6302 3.857 3.6452 3.857 0.23001 0 0.47041-1.2375 0.53421-2.75 0.08678-2.0572 0.23399-2.2462 0.58437-0.75 0.81932 3.4988 5.3485 5.8481 6.787 3.5205zm-2.2285-26.725c-3.2388-0.62457-5.2588-4.1032-5.2588-9.0562 0-5.7488 9.54-29.233 11.883-29.253 0.88911-0.00751 2.5996-0.27734 3.8012-0.59955 1.8772-0.50345 2.3375-0.01837 3.2705 3.4466 0.59723 2.2179 3.3179 8.325 6.046 13.571 4.0051 7.7022 4.8483 10.17 4.3794 12.817-0.66357 3.7455-5.4626 8.7782-8.3706 8.7782-1.9888 0-5.0099-4.4927-5.0099-7.4503 0-0.8523-0.45-1.5497-1-1.5497s-1 1.35-1 3c0 3.1102-3.0541 7.1031-5.25 6.8638-0.6875-0.07489-2.2585-0.33069-3.4912-0.56842zm37.241-24.916c-8.6137-2.0186-13.5-5.8194-13.5-10.501 0-0.67151-0.58502-1.9313-1.3-2.7997s-2.0921-4.7287-3.0602-8.5787-2.4181-7.5069-3.2222-8.1265c-1.121-0.86377-1.2294-1.7384-0.46457-3.75 1.2618-3.3186 1.9144-3.381 1.2917-0.12354-0.53656 2.8068 1.6846 3.495 3.6473 1.1301 0.62532-0.75348 3.9062-2.6127 7.2907-4.1316 5.4438-2.443 6.9783-2.6993 13.299-2.2212 16.805 1.2709 22.882 7.7074 20.517 21.73-1.9702 11.681-6.8766 16.858-16.554 17.467-3.2696 0.20581-6.8446 0.16327-7.9447-0.09454zm-25.43-28.63c-0.04695-1.1687-0.87979-1.75-2.5074-1.75-2.2524 0-2.3933-0.28415-1.8585-3.75 0.74539-4.8304 1.2956-5.432 1.2956-1.4167 0 1.7417 0.45 3.1667 1 3.1667s1-0.44998 1-1 0.39752-1 0.88338-1c1.3111 0 1.9186 3.2463 1.0321 5.516-0.6604 1.6909-0.78528 1.7255-0.84517 0.23401zm-64.975 58.182c1.5974-1.1374 2.9044-2.6643 2.9044-3.3931 0-1.4955-2.7801-2.976-4.9117-2.6156-3.2778 0.5542-8.0002-1.0702-8.5994-2.958-0.34307-1.0809-1.1934-1.9653-1.8897-1.9653-0.73995 0-1.266-1.2465-1.266-3 0-1.65 0.26249-3.0008 0.58333-3.002s0.67771-1.3511 0.79308-3c0.3014-4.3082-1.1732-3.6916-3.0739 1.2854-1.9177 5.0214-2.001 6.8612-0.548 12.094 2.2541 8.1183 9.5919 11.123 16.008 6.5542zm8.7121-7.3328c0.2652-4.0884 0.05778-4.7131-1.5-4.5181-0.99427 0.12451-2.6147-0.12341-3.6009-0.5509-2.6139-1.133-3.2387 0.08752-1.649 3.2214 4.3908 8.656 6.2748 9.1718 6.7499 1.8477zm112.12-2.6185c2.6355-5.0639 2.8884-6.113 1.5936-6.6099-1.7492-0.67127-6.3505 2.0144-7.1873 4.1951-0.73126 1.9056 0.51312 8.4342 1.6076 8.4342 0.46935 0 2.2631-2.7087 3.9861-6.0194zm-121.93-2.8582c0-1.0326-0.59546-2.3717-1.3232-2.9757-1.0592-0.87909-1.2361-0.5044-0.8865 1.8776 0.47791 3.256 2.2098 4.1168 2.2098 1.0981zm-4.2903-2.1204c-0.22549-3.2232-0.4805-3.4335-2.563-2.1138-1.0555 0.66882-1.1028 1.3255-0.21481 2.9847 1.6348 3.0548 3.022 2.6199 2.7778-0.87085zm-9.1822-10.063c0.95023-2.1072 1.4594-4.5305 1.1314-5.3851-0.36826-0.95966-0.04818-1.5538 0.8372-1.5538 0.78838 0 1.9602-1.0125 2.6041-2.25s0.81358-1.9164 0.37719-1.5087c-0.86984 0.81268-3.4775-0.95978-3.4775-2.3638 0-0.48267 0.88843-0.87756 1.9743-0.87756 1.1932 0 2.6038-1.2172 3.5653-3.0765 1.5107-2.9214 1.4909-3.1027-0.39243-3.5952-1.0909-0.28528-2.5347-1.8495-3.2084-3.4761-1.0365-2.5023-1.7032-2.9109-4.3319-2.6548-2.3187 0.22592-3.0323 0.74664-2.813 2.0527 0.22683 1.351-0.40734 1.75-2.7814 1.75-3.5022 0-4.9154 2.2071-2.9385 4.5892 0.92805 1.1182 2.2419 1.3865 4.6119 0.94196 3.2384-0.60754 3.3141-0.54187 3.3141 2.8716 0 3.4471-0.0396 3.4794-3 2.4474-1.65-0.5752-3-1.3993-3-1.8314 0-0.92468-4.0316-2.1172-5.0435-1.4919-1.2324 0.7616 2.1852 9.3454 3.8934 9.779 0.90752 0.23035 0.63755 0.31818-0.59996 0.19513-2.3204-0.23065-3.1251 1.8401-1.1818 3.0411 0.58749 0.3631 0.80912 1.3352 0.49252 2.1603s0.4108 2.525 1.6269 3.7885c2.9014 3.0146 5.9678 1.7086 8.34-3.5521zm-5.5276 0.06116c-1.2819-0.82843-1.2456-0.97156 0.25-0.98468 0.96249-0.00842 1.75 0.43469 1.75 0.98468 0 1.2196-0.1128 1.2196-2 0zm13 2.441c0-0.24255-0.45-0.44098-1-0.44098s-1 0.47656-1 1.059 0.44999 0.78088 1 0.44098 1-0.81647 1-1.059zm154.5-13.961c22.002-12.455 37.344-19.363 59.593-26.833 5.7237-1.9218 12.432-4.4186 14.907-5.5485 3.0521-1.3933 6.7523-2.0886 11.5-2.1607 8.3616-0.12701 18.162-1.2663 19.118-2.2225 0.3779-0.3779-0.51559-1.6332-1.9855-2.7894-4.0839-3.2124-5.9331-7.5684-5.3623-12.632 0.27121-2.4062 1.2654-5.2282 2.2094-6.2713 2.3303-2.5749 1.1423-4.0244-3.2887-4.0126-4.5424 0.01202-11.671 3.2578-21.336 9.7144-8.3166 5.5557-19.752 10.973-24.9 11.796-3.2854 0.52524-3.2341 0.45648 1.0451-1.4018 9.5011-4.126 20.778-10.093 27.5-14.552 3.85-2.5536 8.0125-4.8996 9.25-5.2132 2.8775-0.72922 2.8775-2.1605 0-3.272-2.5522-0.9859-5.9135-4.4459-7.7245-7.9514-1.1976-2.3183-1.2933-2.246-4.375 3.3068-6.1854 11.145-15.207 17.8-35.365 26.086-14.086 5.7902-55.194 27.004-57.536 29.691-1.9299 2.2146-2.3008 5.8358-0.75583 7.3807 1.3008 1.3008 1.4497 4.6758 0.4967 11.255l-0.77483 5.3491 3.392-1.7458c1.8656-0.9602 8.342-4.5478 14.392-7.9726zm-174.68-8.7383c0.17403-1.5078 0.73524-2.7415 1.2471-2.7415s2.6386-1.543 4.726-3.4288 5.0137-3.7346 6.5029-4.1084 2.7076-1.0129 2.7076-1.4204c0-0.91821-18.035-8.5761-31.67-13.448-9.7644-3.4886-27.622-10.901-37.895-15.73-2.6886-1.2638-9.1177-6.0097-14.287-10.547-6.9367-6.0881-10.741-8.6663-14.523-9.8429-2.8186-0.8768-5.7626-1.855-6.5423-2.1737-0.96533-0.39465-0.74022 0.51648 0.7056 2.8558 4.3928 7.1078 3.8121 15.6-1.4984 21.911-1.3962 1.6592-2.293 3.2623-1.9931 3.5623s3.3935 0.79282 6.8744 1.0952 7.9146 1.345 9.8525 2.3171 5.7629 2.08 8.5 2.4621c7.6945 1.0742 24.86 5.5102 25.977 6.713 0.70273 0.75687 0.40546 0.8602-1 0.34757-3.8646-1.4096-21.434-5.5649-23.529-5.5649-1.1653 0-5.348-1.0657-9.295-2.3682-6.4705-2.1354-17.676-4.1302-17.676-3.1467 0 0.21497 0.71511 3.4562 1.5892 7.2029s1.3668 8.4995 1.0952 10.562c-0.57972 4.4008 1.0665 5.0072 4.2671 1.5718 1.8851-2.0234 2.9007-2.1697 14.289-2.0582 14.64 0.14337 16.571 0.6116 45.76 11.098 12.375 4.4461 23.175 7.9796 24 7.8523s1.6424-1.4651 1.8164-2.9729zm-92.721-11.919c1.5254-2.8502 0.59129-14.067-1.6347-19.63-1.808-4.5187-12.888-15.548-16.593-16.517-4.4401-1.1611-8.8675 7.3047-8.8675 16.956 0 11.253 10.206 21.034 22.215 21.29 2.8405 0.06039 3.9891-0.43353 4.8802-2.0985zm137.91-4.2961c6.2291-1.642 19.668-8.3783 24.658-12.36 3.6706-2.9288 13.897-17.946 12.9-18.943-0.7628-0.76282-21.509 9.7289-29.062 14.698-6.4926 4.2707-20.495 16.048-20.495 17.238 0 1.2895 5.8848 0.97903 12-0.63297zm242.25-21.578c2.3923-2.5924 2.748-3.791 2.7347-9.2143-0.01852-7.543-0.86206-9.2251-4.1098-8.1951-4.4297 1.4047-9.8113 5.4373-11.428 8.5632-1.9558 3.7822-1.2702 7.1655 2.1439 10.58 3.1351 3.1352 6.7015 2.5552 10.659-1.7334zm-378.7-2.6003c1.3517-1.4585 2.9834-4.407 3.6262-6.5522 1.0232-3.4151 0.90126-4.4506-0.97999-8.3228-3.3999-6.998-10.597-7.3814-14.458-0.77014-1.544 2.6436-1.6875 3.8326-0.83521 6.9192 0.95938 3.4746 7.4502 11.378 9.3445 11.378 0.46463 0 1.9507-1.1933 3.3024-2.6518zm372.38-17.329c8.447-2.4226 11.495-10.118 6.7821-17.122-5.3473-7.9462-20.625-7.4909-28.351 0.84488-3.6318 3.9187-3.1998 8.5039 1.1263 11.956 6.1398 4.899 13.214 6.3943 20.442 4.3211z" fill="#fff"/>
 </g>
</svg>
